<?xml version="1.0" standalone="no"?>
<!DOCTYPE svg PUBLIC "-//W3C//DTD SVG 20010904//EN" "http://www.w3.org/TR/2001/REC-SVG-20010904/DTD/svg10.dtd">
<!-- Created using Krita: https://krita.org -->
<svg xmlns="http://www.w3.org/2000/svg" 
    xmlns:xlink="http://www.w3.org/1999/xlink"
    xmlns:krita="http://krita.org/namespaces/svg/krita"
    xmlns:sodipodi="http://sodipodi.sourceforge.net/DTD/sodipodi-0.dtd"
    width="1687.5pt"
    height="1266pt"
    viewBox="0 0 1687.5 1266">
<defs/>
<path id="shape0" transform="matrix(1.00000003603131 0 0 1.00000003603131 138.00000470781 93.0000102798303)" fill="#000000" fill-rule="evenodd" stroke="#000000" stroke-width="15.675" stroke-linecap="square" stroke-linejoin="bevel" d="M0 999L0 3L496.5 126L1036.5 0L1473.53 124.93L1476 1126.5L1033.5 1002L498 1126.5Z"/><path id="shape01" transform="matrix(0.999999962368985 0 0 0.999999962368985 250.499995246385 317.999987423814)" fill="none" stroke="#ffffff" stroke-width="60" stroke-linecap="square" stroke-linejoin="bevel" d="M154.5 0L231 246L315 1.5L448.5 36L460.5 244.5L396 429L457.5 669L0 669L67.5 430.5L10.5 246L33 39Z"/><path id="shape02" transform="matrix(0.999999932447144 0 0 0.999999932447144 937.216863928352 334.366886258076)" fill="none" stroke="#ffffff" stroke-width="60" stroke-linecap="square" stroke-linejoin="bevel" d="M166.5 3L238.783 51.1331L318 0L448.5 24L457.783 228.133L393 415.5L457.5 657L0 657L66 411L7.7831 223.633L34.5 19.5Z"/>
</svg>
